# xmcd
#
# Track frame offsets:
#	150
#	54777
#	114960
#	170602
#
# Disc length: 3027 seconds
#
# Revision: 1
# Processed by: cddbd v1.5.2PL0 Copyright (c) Steve Scherf et al.
# Submitted via: EZCDAudioConverter 8.0.2.1
#
DISCID=260bd104
DTITLE=Asia49 - Asia Golden Cha Cha Cha
DYEAR=1993
DGENRE=Classic Rock
TTITLE0=Asia 440 - LK Cha Cha Cha 1
TTITLE1=Asia - LK Cha Cha Cha 2
TTITLE2=Asia 550 - LK Cha Cha Cha 3
TTITLE3=Asia - LK Cha Cha Cha 4
EXTD=
EXTT0=
EXTT1=
EXTT2=
EXTT3=
PLAYORDER=
